<?xml version="1.0" encoding="UTF-8"?><svg id="Layer_1" xmlns="http://www.w3.org/2000/svg" viewBox="0 0 484 78.35"><defs><style>.cls-1{fill:#de2127;}.cls-2{fill:#f4ea13;}</style></defs><path d="M300.46,0c-22.97,0-41.66,10.2-41.66,22.74s18.69,22.75,41.66,22.75,41.66-10.2,41.66-22.75S323.44,0,300.46,0M300.44,35.47c-13.44,0-24.38-5.72-24.38-12.74s10.94-12.74,24.38-12.74,24.38,5.72,24.38,12.74-10.94,12.74-24.38,12.74"/><path class="cls-1" d="M300.46,1.62c-22.08,0-40.05,9.48-40.05,21.13s17.97,21.13,40.05,21.13,40.05-9.48,40.05-21.13S322.55,1.62,300.46,1.62M300.44,37.08c-14.33,0-26-6.44-26-14.36s11.66-14.36,26-14.36,26,6.44,26,14.36-11.66,14.36-26,14.36"/><path class="cls-1" d="M185.54.31h-30.9c-8.06,0-14.84,0-17.85,0-1.84,0-3.32,1.45-3.37,3.28l-.05,1.73c-.03.94.32,1.83.97,2.51.65.68,1.53,1.05,2.48,1.05h35.58c-6.26,2.08-16.82,5.61-19.54,6.57-.85.3-1.8.62-2.82.96-8.13,2.7-20.42,6.78-20.08,16.12.29,8.04,4.82,12.12,13.48,12.12h.15s39.56-.03,50.54-.03c4.15,0,7.52-3.38,7.52-7.53V14c0-5.85-7.96-13.69-16.1-13.69M173.65,34.48l-20.25-.06c-2.55,0-5.52-2.07-5.52-4.73,0-1.91,1.22-3.6,3.05-4.18,2.45-.79,5.76-1.86,9.24-2.98,5.54-1.79,11.48-3.72,14.98-4.82.22-.07.47-.11.74-.11.72,0,1.5.26,2.09.69.34.24.9.76.9,1.47l.02,10.29c0,.95-.44,1.92-1.24,2.72-1.05,1.05-2.58,1.71-3.99,1.71"/><path d="M185.54,1.93h-30.89c-8.06,0-14.84,0-17.85,0-.96,0-1.73.76-1.76,1.72l-.05,1.73c-.01.5.17.98.52,1.34.35.36.82.56,1.32.56h40.82v1.57c-.2.07-20.34,6.75-24.24,8.13-.86.31-1.82.62-2.86.97-7.67,2.55-19.27,6.4-18.98,14.53.26,7.21,4.03,10.56,11.86,10.56h.14s39.56-.03,50.54-.03c3.26,0,5.91-2.66,5.91-5.92V14c0-5.83-8.51-12.07-14.49-12.07M178.79,33.91c-1.36,1.36-3.28,2.18-5.12,2.18l-20.27-.06c-3.36-.01-7.13-2.72-7.13-6.34,0-2.62,1.67-4.92,4.17-5.72,2.45-.79,5.76-1.86,9.23-2.98,5.54-1.79,11.49-3.72,14.98-4.83,1.31-.42,3.04-.08,4.27.82,1.01.73,1.56,1.72,1.56,2.77l.02,10.29c0,1.38-.61,2.76-1.72,3.87"/><path class="cls-1" d="M261.56.33h-66.6c-1.87,0-3.39,1.62-3.39,3.6v1.75c0,1.93,1.54,3.5,3.45,3.5h17.7l-1.01,30.07c.11,2.14,1.59,5.2,4.13,5.38h19.79c2.71,0,4.53-2.97,4.53-5.75,0-.43-1.73-23.17-2.23-29.71h23.59c1.9,0,3.45-1.57,3.45-3.5v-1.75c0-1.88-1.54-3.53-3.4-3.6"/><path d="M261.53,1.94h-66.57c-.97,0-1.78.91-1.78,1.99v1.75c0,1.04.82,1.88,1.83,1.88h19.37l-1.07,31.67c.08,1.43,1.12,3.68,2.58,3.79h19.73c1.88,0,2.92-2.45,2.92-4.13-.02-.61-1.5-20.19-2.28-30.46l-.07-.87h25.33c1.01,0,1.83-.85,1.83-1.88v-1.75c0-1.02-.85-1.95-1.81-1.99"/><path d="M480.54.33h-66.6c-1.87,0-3.4,1.62-3.4,3.6v1.75c0,1.93,1.54,3.5,3.45,3.5h17.7l-1.02,30.07c.11,2.14,1.59,5.2,4.13,5.38h19.79c2.71,0,4.53-2.97,4.53-5.75,0-.43-1.73-23.17-2.22-29.71h23.59c1.9,0,3.44-1.57,3.44-3.5v-1.75c0-1.88-1.54-3.53-3.39-3.6"/><path class="cls-1" d="M480.51,1.94h-66.57c-.97,0-1.78.91-1.78,1.99v1.75c0,1.04.82,1.88,1.83,1.88h19.37l-1.07,31.67c.08,1.43,1.12,3.68,2.58,3.79h19.73c1.88,0,2.92-2.45,2.92-4.13-.02-.61-1.5-20.19-2.28-30.46l-.06-.87h25.33c1.01,0,1.83-.85,1.83-1.88v-1.75c0-1.02-.85-1.95-1.81-1.99"/><path d="M382.43.38l-.51.51.04.39c.05.43.06.59,6.34,4.6q1.02.65,1.01,1.72v.43c0,1.53.02,3.73.03,6.12.04,5.36.09,12.69-.02,13.59-.22,1.82-2.86,2.72-4.82,3.24-4.34,1.15-8.87,1.31-12.94.45-2.95-.62-6.47-2.06-6.47-5.37V9.02c0-.28,0-.56,0-.83.02-1.81.05-3.52-1.16-5.41-1.7-2.66-3.2-2.79-5.7-2.79h-25.35l-.23.23c-1.2,1.18,3.29,6.35,3.34,6.4.41.47.99.58,1.41.66.1.02.21.04.3.06.24,1.04.31,4.87.34,6.57.01.73.03,1.34.04,1.72.05,1.24.05,2.56.05,3.97,0,5.98-.02,12.76,3.91,17.19,4.43,4.99,11.37,6.92,16.41,7.67,4.35.64,9.2.97,14.41.97,1.89,0,3.87-.04,5.89-.13,5.03-.21,11.56-.76,17.36-3.22,5.3-2.24,10.79-7.6,11.04-13.5.23-3.43.11-11.04.02-16.59-.04-2.27-.07-4.44-.06-5.39.49-.13,1.01-.21,1.54-.29.96-.15,1.96-.31,2.93-.75,1.08-.49,1.78-1.18,2.09-2.03.04-.11.31-.97.49-1.56.02-.06.04-.12.06-.18l3.66-1.42h-35.44Z"/><path class="cls-1" d="M385.32,2c1.49.99,3.34,2.2,3.84,2.52,1.63,1.04,1.77,1.45,1.76,3.09v.41c0,1.52.02,3.72.03,6.11.05,7.49.08,12.87-.03,13.79-.38,3.12-4.47,4.2-6.02,4.61-2.64.7-5.32,1.05-7.98,1.05-1.96,0-3.88-.2-5.71-.58-5-1.05-7.75-3.52-7.75-6.95V9.02c0-.29,0-.57,0-.85.02-1.76.04-3.04-.9-4.51-1.25-1.95-2.04-2.05-4.34-2.05h-23.83c.79,1.29,2.42,3.52,2.79,3.95.06.05.34.11.5.14.31.06.66.12.99.31.63.36.84,1.05.97,7.88.01.71.03,1.31.04,1.68.05,1.27.05,2.61.05,4.04,0,5.69-.02,12.14,3.51,16.12,4.1,4.62,10.66,6.43,15.44,7.14,4.28.63,9.05.95,14.17.95,1.86,0,3.82-.04,5.82-.12,4.9-.2,11.23-.74,16.8-3.09,4.83-2.04,9.84-6.85,10.05-12.1.23-3.38.11-10.95.02-16.48q-.1-6.21.14-6.52l.15-.19.23-.08c.78-.27,1.57-.39,2.33-.51.89-.14,1.73-.27,2.5-.62.67-.31,1.09-.68,1.25-1.12.03-.09.17-.54.31-.99h-27.14Z"/><path class="cls-1" d="M74.54.51s-63.69-.03-64.15-.03C4.57.48.01,3.73.01,7.88v33.5c0,1.9,1.55,3.45,3.45,3.45h26.39c1.9,0,3.45-1.55,3.45-3.45v-9.57h32.93c1.9,0,3.45-1.55,3.45-3.45v-3.83c0-1.9-1.55-3.45-3.45-3.45h-32.93v-10.66h41.24c1.9,0,3.45-1.55,3.45-3.45v-3.03c0-1.9-1.55-3.45-3.45-3.45"/><path d="M74.53,2.13s-63.69-.03-64.14-.03C5.56,2.09,1.63,4.69,1.63,7.88v33.5c0,1.01.82,1.83,1.83,1.83h26.39c1.01,0,1.83-.82,1.83-1.83v-11.19h34.54c1.01,0,1.83-.82,1.83-1.83v-3.83c0-1.01-.82-1.83-1.83-1.83H31.68v-13.89h42.85c1.01,0,1.83-.82,1.83-1.83v-3.04c0-1.01-.82-1.83-1.83-1.83"/><path class="cls-1" d="M131.8,32.42h-27.16V3.51c0-1.91-1.55-3.47-3.45-3.47h-19.26c-1.9,0-3.45,1.56-3.45,3.47v37.45c0,1.91,1.55,3.47,3.45,3.47h49.88c1.9,0,3.45-1.56,3.45-3.47v-5.06c0-1.91-1.55-3.47-3.45-3.47"/><path d="M131.8,34.03h-28.78V3.51c0-1.02-.82-1.86-1.83-1.86h-19.26c-1.01,0-1.83.83-1.83,1.86v37.45c0,1.02.82,1.86,1.83,1.86h49.88c1.01,0,1.83-.83,1.83-1.86v-5.06c0-1.02-.82-1.86-1.83-1.86"/><polygon points="311.32 12.68 265.01 25.54 271.01 18.15 195.87 36.1 255.21 30.1 242.98 48.59 311.32 12.68"/><polygon class="cls-2" points="299.93 17.2 246.87 45.08 256.92 29.88 257.81 28.53 256.2 28.69 215.08 32.85 267.58 20.31 262.94 26.03 261.43 27.89 263.74 27.24 299.93 17.2"/><polygon points="0 60.73 9.6 60.73 14.77 72 19.93 60.73 29.48 60.73 29.48 78.1 24.26 78.1 24.39 65.09 23.52 65.09 16.97 78.1 12.58 78.1 6.02 65.09 5.09 65.09 5.22 78.1 0 78.1 0 60.73"/><path d="M65.39,60.47c3.75,0,6.33.09,7.74.28,2.03.27,3.27,1.23,3.73,2.89.31,1.14.47,3.06.47,5.76s-.16,4.64-.47,5.78c-.46,1.66-1.7,2.62-3.73,2.89-1.41.18-3.97.28-7.69.28s-6.38-.09-7.79-.28c-2.03-.27-3.27-1.24-3.73-2.89-.31-1.13-.47-3.1-.47-5.88s.16-4.53.47-5.66c.46-1.66,1.7-2.62,3.73-2.89,1.4-.19,3.98-.28,7.74-.28M65.41,64.99c-2.81,0-4.5.07-5.06.22-.65.17-1.08.55-1.29,1.14-.2.59-.31,1.76-.31,3.52,0,1.06.06,1.83.17,2.3.21.88.86,1.39,1.92,1.51.79.1,2.32.15,4.6.15,2.13,0,3.55-.04,4.25-.12.7-.08,1.23-.25,1.57-.51.3-.24.51-.59.62-1.05.11-.46.16-1.22.16-2.27,0-1.25-.04-2.16-.13-2.75-.09-.58-.24-1.02-.46-1.32-.28-.38-.74-.61-1.39-.69-.64-.09-2.2-.13-4.66-.13"/><polygon points="100.39 60.73 121.42 60.73 121.42 65.16 113.69 65.16 113.69 78.1 108.13 78.1 108.13 65.16 100.39 65.16 100.39 60.73"/><path d="M156.41,60.47c3.75,0,6.33.09,7.74.28,2.03.27,3.27,1.23,3.73,2.89.31,1.14.47,3.06.47,5.76s-.16,4.64-.47,5.78c-.46,1.66-1.7,2.62-3.73,2.89-1.41.18-3.97.28-7.69.28s-6.38-.09-7.79-.28c-2.03-.27-3.27-1.24-3.73-2.89-.31-1.13-.47-3.1-.47-5.88s.16-4.53.47-5.66c.46-1.66,1.7-2.62,3.73-2.89,1.4-.19,3.98-.28,7.74-.28M156.43,64.99c-2.81,0-4.5.07-5.06.22-.65.17-1.08.55-1.29,1.14-.2.59-.31,1.76-.31,3.52,0,1.06.06,1.83.17,2.3.21.88.86,1.39,1.92,1.51.79.1,2.32.15,4.6.15,2.13,0,3.55-.04,4.25-.12.7-.08,1.23-.25,1.57-.51.3-.24.51-.59.62-1.05.11-.46.16-1.22.16-2.27,0-1.25-.04-2.16-.13-2.75-.08-.58-.24-1.02-.46-1.32-.28-.38-.74-.61-1.39-.69-.64-.09-2.2-.13-4.66-.13"/><path d="M192.34,78.1v-17.37h12.79c3,0,4.8.04,5.4.09.6.05,1.17.25,1.72.59.66.4,1.12.95,1.36,1.65.25.7.37,1.8.37,3.3,0,1.27-.08,2.19-.24,2.79-.16.59-.45,1.07-.88,1.43-.47.38-1.17.64-2.11.79,1.11.08,1.91.4,2.39.95.28.33.46.73.53,1.2.08.47.11,1.46.11,2.96v1.62h-5.22v-.93c0-.97-.04-1.65-.11-2.07-.07-.41-.21-.73-.4-.95-.2-.2-.46-.33-.81-.39-.34-.05-1.06-.08-2.16-.08h-7.46v4.42h-5.3ZM197.64,69.34h7.45c1.3-.03,2.07-.05,2.32-.07.25-.02.47-.09.64-.2.23-.14.39-.36.48-.64.09-.28.14-.72.14-1.29s-.06-.99-.16-1.27c-.11-.28-.29-.48-.55-.61-.19-.09-.41-.14-.67-.15-.26-.02-1-.03-2.22-.04h-7.43v4.28Z"/><path d="M237.09,72.35h5.13c0,.86.16,1.41.52,1.66.25.16.58.25.99.28s1.67.05,3.81.07c2.24,0,3.59-.02,4.04-.05.45-.02.81-.09,1.07-.2.39-.16.59-.6.59-1.31,0-.52-.14-.86-.42-1.04-.27-.17-.84-.27-1.69-.29-.65,0-2.04-.05-4.15-.15-2.16-.1-3.57-.16-4.23-.18-1.27-.04-2.25-.16-2.93-.36-.68-.2-1.22-.52-1.6-.97-.65-.75-.98-1.99-.98-3.74,0-1.96.37-3.34,1.12-4.15.57-.63,1.45-1.03,2.62-1.2,1.18-.17,3.58-.26,7.19-.26,2.55,0,4.35.07,5.38.22,1.6.22,2.69.66,3.28,1.33.59.66.89,1.79.89,3.36,0,.14,0,.42-.01.82h-5.13c-.02-.48-.06-.82-.12-.99-.06-.18-.19-.32-.38-.43-.23-.13-.63-.22-1.21-.26-.58-.04-1.8-.06-3.67-.06-2.25,0-3.62.07-4.11.21-.49.14-.74.53-.74,1.16s.25.98.74,1.12c.41.11,2.28.21,5.61.32,2.81.08,4.69.18,5.63.3.95.12,1.7.33,2.26.66.64.38,1.09.9,1.35,1.57.26.67.4,1.62.4,2.87,0,1.64-.22,2.86-.66,3.65-.33.58-.79,1.02-1.38,1.31-.59.29-1.42.48-2.49.58-1.14.1-3.28.15-6.4.15-2.61,0-4.55-.07-5.79-.2-1.25-.14-2.19-.38-2.81-.73-.65-.37-1.1-.86-1.36-1.48-.25-.61-.38-1.54-.38-2.79v-.81Z"/><path d="M282.09,78.1v-17.38h11.9c2.36,0,3.88.05,4.56.14,1.72.23,2.89.78,3.49,1.66.61.88.91,2.45.91,4.7s-.25,3.65-.75,4.52c-.34.58-.82,1.03-1.43,1.34-.61.31-1.45.52-2.51.64-.75.09-2.16.13-4.23.13h-6.66v4.25h-5.3ZM287.38,69.51h6.62c1.21,0,1.94-.03,2.21-.05.27-.02.51-.09.72-.2.27-.14.46-.36.56-.65.1-.29.15-.75.15-1.37s-.06-1.07-.19-1.36c-.13-.29-.35-.5-.68-.62-.24-.09-1.16-.15-2.77-.18h-6.62v4.44Z"/><path d="M338.18,60.47c3.75,0,6.33.09,7.74.28,2.03.27,3.27,1.23,3.73,2.89.31,1.14.47,3.06.47,5.76s-.16,4.64-.47,5.78c-.46,1.66-1.7,2.62-3.73,2.89-1.41.18-3.97.28-7.69.28s-6.38-.09-7.79-.28c-2.03-.27-3.27-1.24-3.73-2.89-.31-1.13-.47-3.1-.47-5.88s.16-4.53.47-5.66c.46-1.66,1.7-2.62,3.73-2.89,1.4-.19,3.98-.28,7.74-.28M338.19,64.99c-2.81,0-4.5.07-5.06.22-.65.17-1.08.55-1.29,1.14-.2.59-.31,1.76-.31,3.52,0,1.06.06,1.83.16,2.3.21.88.86,1.39,1.92,1.51.79.1,2.32.15,4.6.15,2.13,0,3.55-.04,4.25-.12.7-.08,1.23-.25,1.57-.51.3-.24.51-.59.62-1.05.11-.46.16-1.22.16-2.27,0-1.25-.04-2.16-.13-2.75-.09-.58-.24-1.02-.46-1.32-.28-.38-.74-.61-1.39-.69-.64-.09-2.2-.13-4.66-.13"/><path d="M374.1,78.1v-17.37h12.79c3,0,4.8.04,5.4.09.59.05,1.17.25,1.72.59.66.4,1.12.95,1.36,1.65.25.7.37,1.8.37,3.3,0,1.27-.08,2.19-.24,2.79-.16.59-.45,1.07-.88,1.43-.47.38-1.17.64-2.11.79,1.11.08,1.91.4,2.39.95.28.33.46.73.53,1.2.08.47.12,1.46.12,2.96v1.62h-5.22v-.93c0-.97-.04-1.65-.11-2.07-.07-.41-.21-.73-.4-.95-.2-.2-.46-.33-.81-.39-.35-.05-1.06-.08-2.16-.08h-7.46v4.42h-5.3ZM379.4,69.34h7.45c1.3-.03,2.07-.05,2.32-.07.25-.02.47-.09.64-.2.23-.14.39-.36.48-.64s.14-.72.14-1.29-.05-.99-.16-1.27c-.11-.28-.29-.48-.55-.61-.19-.09-.41-.14-.67-.15-.26-.02-1-.03-2.22-.04h-7.43v4.28Z"/><polygon points="418.75 60.73 439.78 60.73 439.78 65.16 432.05 65.16 432.05 78.1 426.49 78.1 426.49 65.16 418.75 65.16 418.75 60.73"/><path d="M462.73,72.35h5.13c0,.86.17,1.41.52,1.66.25.16.58.25.99.28.4.03,1.67.05,3.81.07,2.24,0,3.59-.02,4.04-.05.45-.02.81-.09,1.07-.2.39-.16.59-.6.59-1.31,0-.52-.14-.86-.42-1.04-.27-.17-.84-.27-1.69-.29-.65,0-2.04-.05-4.15-.15-2.16-.1-3.57-.16-4.23-.18-1.27-.04-2.25-.16-2.93-.36-.68-.2-1.22-.52-1.6-.97-.65-.75-.98-1.99-.98-3.74,0-1.96.37-3.34,1.12-4.15.57-.63,1.45-1.03,2.62-1.2,1.18-.17,3.58-.26,7.19-.26,2.55,0,4.35.07,5.38.22,1.6.22,2.69.66,3.28,1.33.59.66.89,1.79.89,3.36,0,.14,0,.42-.01.82h-5.13c-.02-.48-.06-.82-.12-.99-.06-.18-.19-.32-.37-.43-.23-.13-.63-.22-1.21-.26-.58-.04-1.8-.06-3.66-.06-2.25,0-3.62.07-4.11.21-.49.14-.74.53-.74,1.16s.25.98.74,1.12c.41.11,2.28.21,5.61.32,2.81.08,4.69.18,5.63.3.95.12,1.7.33,2.26.66.64.38,1.09.9,1.35,1.57s.39,1.62.39,2.87c0,1.64-.22,2.86-.66,3.65-.33.58-.79,1.02-1.38,1.31-.59.29-1.42.48-2.49.58-1.15.1-3.28.15-6.4.15-2.61,0-4.55-.07-5.79-.2-1.25-.14-2.19-.38-2.81-.73-.65-.37-1.1-.86-1.36-1.48-.25-.61-.38-1.54-.38-2.79v-.81Z"/></svg>