<?xml version="1.0" encoding="UTF-8"?><svg id="Layer_1" xmlns="http://www.w3.org/2000/svg" viewBox="0 0 484 68.62"><defs><style>.cls-1{fill:#333;}.cls-2{fill:#fff;}.cls-3{fill:#cfd1d2;}.cls-4{fill:#de2127;}.cls-5{fill:#f4ea13;}</style></defs><path class="cls-3" d="M300.46,0c-22.97,0-41.66,8.94-41.66,19.92s18.69,19.92,41.66,19.92,41.66-8.94,41.66-19.92S323.44,0,300.46,0ZM300.44,31.06c-13.44,0-24.38-5.01-24.38-11.16s10.94-11.16,24.38-11.16,24.38,5.01,24.38,11.16-10.94,11.16-24.38,11.16Z"/><path class="cls-4" d="M300.46,1.42c-22.08,0-40.05,8.3-40.05,18.51s17.97,18.51,40.05,18.51,40.05-8.3,40.05-18.51S322.55,1.42,300.46,1.42ZM300.44,32.48c-14.33,0-26-5.64-26-12.57s11.66-12.57,26-12.57,26,5.64,26,12.57-11.66,12.57-26,12.57Z"/><path d="M185.54.27h-30.9c-8.06,0-14.84,0-17.85,0-1.84,0-3.32,1.27-3.37,2.87l-.05,1.51c-.03.82.32,1.6.97,2.19.66.59,1.54.92,2.48.92h35.58c-6.26,1.82-16.82,4.91-19.54,5.76-.85.26-1.8.54-2.82.84-8.13,2.37-20.41,5.94-20.08,14.12.29,7.04,4.82,10.62,13.48,10.62h.15s39.56-.02,50.53-.03c4.15,0,7.53-2.96,7.53-6.6V12.26c0-5.12-7.96-11.99-16.11-11.99ZM173.65,30.19l-20.25-.05c-2.55,0-5.52-1.82-5.52-4.14,0-1.68,1.22-3.15,3.05-3.66,2.45-.69,5.76-1.63,9.24-2.61,5.54-1.57,11.48-3.25,14.98-4.23.22-.06.47-.09.74-.09.72,0,1.5.23,2.09.61.33.21.9.67.9,1.29l.02,9.01c0,.83-.44,1.68-1.24,2.38-1.05.92-2.58,1.49-3.99,1.49Z"/><path class="cls-2" d="M185.54,1.69h-30.9c-8.06,0-14.84,0-17.85,0-.96,0-1.73.66-1.76,1.5l-.05,1.51c-.01.44.17.85.52,1.17.35.31.82.49,1.32.49h40.82v1.38c-.2.06-20.34,5.91-24.24,7.13-.86.27-1.82.55-2.85.85-7.67,2.23-19.27,5.61-18.98,12.73.26,6.31,4.03,9.25,11.86,9.25h.14s39.56-.02,50.54-.03c3.26,0,5.91-2.33,5.91-5.18V12.26c0-5.1-8.5-10.57-14.49-10.57ZM178.79,29.7c-1.36,1.2-3.28,1.91-5.12,1.91l-20.27-.05c-3.36,0-7.13-2.39-7.13-5.55,0-2.29,1.67-4.31,4.17-5.01,2.45-.69,5.76-1.63,9.23-2.61,5.54-1.57,11.49-3.26,14.99-4.23,1.31-.37,3.04-.07,4.27.72,1.01.64,1.56,1.51,1.56,2.43l.02,9.01c0,1.21-.61,2.41-1.72,3.39Z"/><path d="M261.56.29h-66.6c-1.87,0-3.4,1.42-3.4,3.16v1.53c0,1.69,1.55,3.06,3.45,3.06h17.7l-1.02,26.34c.11,1.87,1.59,4.55,4.13,4.72h19.79c2.71,0,4.53-2.6,4.53-5.03,0-.37-1.73-20.29-2.22-26.02h23.59c1.9,0,3.45-1.37,3.45-3.06v-1.53c0-1.65-1.54-3.09-3.4-3.16Z"/><path class="cls-2" d="M261.53,1.7h-66.57c-.97,0-1.78.8-1.78,1.74v1.53c0,.91.82,1.65,1.83,1.65h19.37l-1.07,27.74c.08,1.25,1.12,3.22,2.58,3.32h19.73c1.88,0,2.92-2.14,2.92-3.62-.02-.53-1.51-17.68-2.29-26.67l-.07-.76h25.33c1.01,0,1.83-.74,1.83-1.65v-1.53c0-.9-.85-1.71-1.81-1.74Z"/><path class="cls-3" d="M480.54.29h-66.6c-1.87,0-3.4,1.42-3.4,3.16v1.53c0,1.69,1.55,3.06,3.45,3.06h17.7l-1.02,26.34c.11,1.87,1.59,4.55,4.14,4.72h19.79c2.71,0,4.53-2.6,4.53-5.03,0-.37-1.73-20.29-2.22-26.02h23.58c1.9,0,3.45-1.37,3.45-3.06v-1.53c0-1.65-1.54-3.09-3.4-3.16Z"/><path class="cls-4" d="M480.51,1.7h-66.57c-.97,0-1.78.8-1.78,1.74v1.53c0,.91.82,1.65,1.83,1.65h19.37l-1.07,27.74c.08,1.25,1.12,3.22,2.58,3.32h19.73c1.88,0,2.92-2.14,2.92-3.62-.02-.53-1.5-17.68-2.29-26.67l-.07-.76h25.33c1.01,0,1.83-.74,1.83-1.65v-1.53c0-.9-.85-1.71-1.81-1.74Z"/><path class="cls-3" d="M382.43.33l-.51.44.04.34c.04.37.06.51,6.34,4.03q1.02.57,1.01,1.51v.37c0,1.34.02,3.27.03,5.36.04,4.69.09,11.12-.02,11.9-.22,1.59-2.86,2.38-4.83,2.84-4.34,1.01-8.87,1.15-12.94.4-2.95-.54-6.47-1.8-6.47-4.7V7.9c0-.25,0-.49,0-.73.02-1.59.05-3.09-1.16-4.74-1.7-2.33-3.2-2.44-5.7-2.44h-25.35l-.24.2c-1.2,1.03,3.29,5.56,3.34,5.6.41.41.99.51,1.42.58.1.02.21.03.3.05.24.91.31,4.27.34,5.76.01.64.03,1.17.04,1.5.05,1.08.05,2.25.05,3.48,0,5.24-.02,11.17,3.92,15.06,4.42,4.37,11.37,6.06,16.41,6.71,4.36.56,9.2.85,14.41.85,1.89,0,3.87-.04,5.89-.11,5.03-.18,11.56-.67,17.36-2.82,5.3-1.96,10.79-6.66,11.04-11.82.23-3,.11-9.67.02-14.53-.04-1.99-.07-3.89-.06-4.72.49-.11,1.01-.18,1.54-.26.96-.13,1.96-.27,2.93-.66,1.07-.43,1.78-1.03,2.09-1.78.04-.1.31-.85.49-1.37.02-.06.04-.11.06-.16l3.66-1.24h-35.44Z"/><path class="cls-4" d="M385.32,1.75c1.49.87,3.34,1.93,3.84,2.2,1.63.91,1.77,1.27,1.76,2.71v.36c0,1.33.02,3.26.03,5.35.05,6.56.08,11.27-.03,12.08-.38,2.73-4.47,3.68-6.02,4.04-2.64.61-5.32.92-7.98.92-1.96,0-3.88-.17-5.71-.51-5-.92-7.75-3.08-7.75-6.09V7.9c0-.26,0-.5,0-.74.02-1.55.04-2.66-.91-3.95-1.25-1.71-2.04-1.79-4.34-1.79h-23.83c.79,1.13,2.41,3.08,2.79,3.46.06.05.34.09.5.12.31.05.66.11.99.27.63.31.84.92.97,6.9.01.62.02,1.15.04,1.47.05,1.11.05,2.29.05,3.53,0,4.98-.02,10.63,3.51,14.12,4.1,4.05,10.66,5.64,15.44,6.25,4.28.55,9.05.83,14.17.83,1.86,0,3.82-.04,5.82-.11,4.9-.18,11.23-.65,16.8-2.71,4.83-1.79,9.84-6,10.05-10.59.23-2.96.1-9.59.02-14.44q-.1-5.44.14-5.71l.15-.17.23-.07c.78-.24,1.57-.35,2.33-.45.89-.12,1.74-.24,2.5-.55.67-.27,1.09-.6,1.25-.98.03-.08.17-.47.31-.86h-27.14Z"/><path d="M74.54.45s-63.69-.03-64.14-.03C4.57.42.01,3.27.01,6.9v29.34c0,1.66,1.55,3.02,3.45,3.02h26.39c1.9,0,3.45-1.35,3.45-3.02v-8.38h32.93c1.9,0,3.45-1.35,3.45-3.02v-3.35c0-1.66-1.55-3.02-3.45-3.02h-32.93v-9.33h41.24c1.9,0,3.45-1.35,3.45-3.02v-2.66c0-1.66-1.55-3.02-3.45-3.02Z"/><path class="cls-2" d="M74.53,1.86s-63.69-.03-64.14-.03C5.56,1.83,1.63,4.11,1.63,6.9v29.34c0,.88.82,1.6,1.83,1.6h26.39c1.01,0,1.83-.72,1.83-1.6v-9.8h34.54c1.01,0,1.83-.72,1.83-1.6v-3.35c0-.88-.82-1.6-1.83-1.6H31.68V7.73h42.86c1.01,0,1.83-.72,1.83-1.6v-2.66c0-.88-.82-1.6-1.83-1.6Z"/><path d="M131.8,28.39h-27.17s0-25.32,0-25.32c0-1.68-1.55-3.04-3.45-3.04h-19.26c-1.9,0-3.45,1.36-3.45,3.04v32.8c0,1.68,1.55,3.04,3.45,3.04h49.88c1.9,0,3.45-1.36,3.45-3.04v-4.44c0-1.68-1.55-3.04-3.45-3.04Z"/><path class="cls-2" d="M131.8,29.81h-28.78s0-26.73,0-26.73c0-.9-.82-1.63-1.83-1.63h-19.26c-1.01,0-1.83.73-1.83,1.63v32.8c0,.9.82,1.63,1.83,1.63h49.88c1.01,0,1.83-.73,1.83-1.63v-4.44c0-.9-.82-1.63-1.83-1.63Z"/><polygon class="cls-1" points="311.56 10.75 265.25 22.01 271.25 15.54 196.11 31.26 255.44 26.01 243.22 42.2 311.56 10.75"/><path class="cls-5" d="M300.17,14.71l-53.07,24.41,10.05-13.31.89-1.18-1.6.14-41.12,3.64,52.5-10.99-4.64,5.01-1.51,1.63,2.31-.56,36.19-8.8"/><path class="cls-2" d="M0,53.18h9.6l5.17,9.88,5.17-9.88h9.55v15.22h-5.22l.13-11.39h-.87l-6.56,11.39h-4.39l-6.56-11.39h-.93l.13,11.39H0v-15.22Z"/><path class="cls-2" d="M65.39,52.96c3.75,0,6.33.08,7.74.25,2.03.24,3.27,1.08,3.73,2.53.31.99.47,2.68.47,5.05s-.16,4.07-.47,5.06c-.46,1.45-1.7,2.29-3.73,2.53-1.41.16-3.97.25-7.69.25s-6.38-.08-7.79-.25c-2.03-.24-3.27-1.08-3.73-2.53-.31-.99-.47-2.71-.47-5.15s.16-3.97.47-4.96c.46-1.45,1.7-2.29,3.73-2.53,1.4-.16,3.98-.25,7.74-.25ZM65.41,56.92c-2.81,0-4.5.06-5.07.19-.65.15-1.08.48-1.29,1s-.31,1.54-.31,3.08c0,.93.06,1.6.17,2.02.21.77.85,1.22,1.92,1.33.79.09,2.32.13,4.59.13,2.13,0,3.55-.03,4.25-.1.7-.07,1.23-.22,1.57-.45.31-.21.51-.52.62-.92s.16-1.07.16-1.99c0-1.09-.04-1.89-.13-2.41-.08-.51-.24-.9-.46-1.16-.28-.33-.74-.53-1.39-.61-.64-.08-2.2-.12-4.66-.12Z"/><path class="cls-2" d="M100.39,53.18h21.03v3.88h-7.73v11.34h-5.56v-11.34h-7.74v-3.88Z"/><path class="cls-2" d="M156.41,52.96c3.75,0,6.33.08,7.74.25,2.03.24,3.27,1.08,3.73,2.53.31.99.47,2.68.47,5.05s-.16,4.07-.47,5.06c-.46,1.45-1.7,2.29-3.73,2.53-1.41.16-3.97.25-7.69.25s-6.38-.08-7.79-.25c-2.03-.24-3.27-1.08-3.73-2.53-.31-.99-.47-2.71-.47-5.15s.16-3.97.47-4.96c.46-1.45,1.7-2.29,3.73-2.53,1.4-.16,3.98-.25,7.74-.25ZM156.43,56.92c-2.81,0-4.5.06-5.07.19-.65.15-1.08.48-1.29,1s-.31,1.54-.31,3.08c0,.93.06,1.6.17,2.02.21.77.85,1.22,1.92,1.33.79.09,2.32.13,4.59.13,2.13,0,3.55-.03,4.25-.1.7-.07,1.23-.22,1.57-.45.31-.21.51-.52.62-.92s.16-1.07.16-1.99c0-1.09-.04-1.89-.13-2.41-.08-.51-.24-.9-.46-1.16-.28-.33-.74-.53-1.39-.61-.64-.08-2.2-.12-4.66-.12Z"/><path class="cls-2" d="M192.34,68.4v-15.22h12.79c3,0,4.8.03,5.4.08.59.05,1.17.22,1.72.52.66.35,1.12.83,1.36,1.44.25.61.37,1.58.37,2.89,0,1.11-.08,1.92-.24,2.44s-.45.94-.88,1.25c-.47.34-1.17.56-2.11.69,1.11.07,1.91.35,2.39.84.28.29.46.64.53,1.05.08.41.11,1.28.11,2.59v1.42h-5.22v-.81c0-.85-.04-1.45-.11-1.81s-.21-.64-.4-.83c-.19-.18-.46-.29-.81-.34-.34-.05-1.06-.07-2.16-.07h-7.46v3.87h-5.3ZM197.64,60.73h7.45c1.3-.02,2.07-.04,2.32-.06.25-.02.47-.08.64-.17.23-.13.39-.31.48-.56.09-.25.14-.63.14-1.13s-.05-.87-.16-1.11c-.11-.25-.29-.42-.55-.53-.19-.07-.41-.12-.67-.13-.26-.01-1-.03-2.22-.03h-7.43v3.75Z"/><path class="cls-2" d="M237.09,63.36h5.13c0,.75.16,1.23.52,1.45.25.14.58.22.99.25.4.03,1.67.05,3.81.06,2.24,0,3.59-.02,4.04-.04.45-.02.81-.08,1.07-.17.39-.14.59-.52.59-1.15,0-.45-.14-.76-.42-.91-.27-.15-.84-.24-1.69-.25-.65,0-2.04-.05-4.15-.13-2.16-.09-3.57-.14-4.23-.16-1.27-.04-2.25-.14-2.93-.32-.68-.17-1.22-.46-1.6-.85-.65-.65-.98-1.75-.98-3.28,0-1.72.37-2.93,1.12-3.63.57-.55,1.44-.9,2.62-1.05,1.18-.15,3.58-.23,7.19-.23,2.55,0,4.35.06,5.38.19,1.6.19,2.69.58,3.28,1.17s.89,1.57.89,2.95c0,.13,0,.37-.01.71h-5.13c-.02-.42-.06-.71-.12-.87-.06-.16-.19-.28-.38-.38-.23-.12-.63-.19-1.21-.23-.58-.03-1.8-.05-3.66-.05-2.25,0-3.62.06-4.11.18-.49.12-.74.46-.74,1.02s.25.86.74.98c.41.1,2.28.19,5.61.28,2.81.07,4.68.16,5.63.26.95.1,1.7.29,2.26.57.64.33,1.09.79,1.35,1.38.26.58.4,1.42.4,2.51,0,1.44-.22,2.5-.66,3.2-.33.51-.79.89-1.38,1.15-.59.25-1.42.42-2.49.51-1.15.09-3.28.13-6.4.13-2.61,0-4.55-.06-5.79-.18-1.25-.12-2.18-.33-2.81-.64-.65-.33-1.1-.76-1.36-1.29-.25-.53-.38-1.35-.38-2.44v-.71Z"/><path class="cls-2" d="M282.09,68.4v-15.22h11.9c2.36,0,3.88.04,4.56.12,1.72.2,2.89.69,3.5,1.46.61.77.91,2.14.91,4.12s-.25,3.2-.75,3.96c-.34.51-.81.9-1.43,1.17-.61.27-1.45.45-2.51.56-.75.07-2.16.11-4.23.11h-6.66v3.72h-5.3ZM287.38,60.87h6.62c1.21,0,1.94-.02,2.21-.04.27-.02.51-.08.72-.18.27-.13.46-.32.56-.57s.15-.66.15-1.2-.06-.94-.19-1.19c-.13-.25-.35-.43-.68-.55-.24-.08-1.16-.13-2.77-.16h-6.62v3.89Z"/><path class="cls-2" d="M338.18,52.96c3.75,0,6.33.08,7.74.25,2.03.24,3.27,1.08,3.73,2.53.31.99.47,2.68.47,5.05s-.16,4.07-.47,5.06c-.46,1.45-1.7,2.29-3.73,2.53-1.41.16-3.97.25-7.69.25s-6.38-.08-7.79-.25c-2.03-.24-3.27-1.08-3.73-2.53-.31-.99-.47-2.71-.47-5.15s.16-3.97.47-4.96c.46-1.45,1.7-2.29,3.73-2.53,1.4-.16,3.98-.25,7.74-.25ZM338.19,56.92c-2.81,0-4.5.06-5.07.19-.65.15-1.08.48-1.29,1s-.31,1.54-.31,3.08c0,.93.06,1.6.17,2.02.21.77.85,1.22,1.92,1.33.79.09,2.32.13,4.59.13,2.13,0,3.55-.03,4.25-.1.7-.07,1.23-.22,1.57-.45.31-.21.51-.52.62-.92s.16-1.07.16-1.99c0-1.09-.04-1.89-.13-2.41-.08-.51-.24-.9-.46-1.16-.28-.33-.74-.53-1.39-.61-.64-.08-2.2-.12-4.66-.12Z"/><path class="cls-2" d="M374.1,68.4v-15.22h12.79c3,0,4.8.03,5.4.08.59.05,1.17.22,1.72.52.66.35,1.12.83,1.36,1.44.25.61.37,1.58.37,2.89,0,1.11-.08,1.92-.24,2.44s-.45.94-.88,1.25c-.47.34-1.17.56-2.11.69,1.11.07,1.91.35,2.39.84.28.29.46.64.53,1.05.08.41.11,1.28.11,2.59v1.42h-5.22v-.81c0-.85-.04-1.45-.11-1.81-.07-.36-.21-.64-.4-.83-.19-.18-.46-.29-.81-.34-.34-.05-1.06-.07-2.16-.07h-7.46v3.87h-5.3ZM379.4,60.73h7.45c1.3-.02,2.07-.04,2.32-.06.25-.02.47-.08.64-.17.23-.13.39-.31.48-.56.09-.25.14-.63.14-1.13s-.05-.87-.16-1.11c-.11-.25-.29-.42-.55-.53-.19-.07-.41-.12-.67-.13-.26-.01-1-.03-2.22-.03h-7.43v3.75Z"/><path class="cls-2" d="M418.75,53.18h21.03v3.88h-7.73v11.34h-5.56v-11.34h-7.74v-3.88Z"/><path class="cls-2" d="M462.73,63.36h5.13c0,.75.16,1.23.52,1.45.25.14.58.22.99.25.4.03,1.67.05,3.81.06,2.24,0,3.59-.02,4.04-.04.45-.02.81-.08,1.07-.17.39-.14.59-.52.59-1.15,0-.45-.14-.76-.42-.91-.27-.15-.84-.24-1.69-.25-.65,0-2.04-.05-4.15-.13-2.16-.09-3.57-.14-4.23-.16-1.27-.04-2.25-.14-2.93-.32-.68-.17-1.22-.46-1.6-.85-.65-.65-.98-1.75-.98-3.28,0-1.72.37-2.93,1.12-3.63.57-.55,1.44-.9,2.62-1.05,1.18-.15,3.58-.23,7.19-.23,2.55,0,4.35.06,5.38.19,1.6.19,2.69.58,3.28,1.17.59.58.89,1.57.89,2.95,0,.13,0,.37-.01.71h-5.13c-.02-.42-.06-.71-.12-.87-.06-.16-.19-.28-.38-.38-.23-.12-.63-.19-1.21-.23-.58-.03-1.8-.05-3.66-.05-2.25,0-3.62.06-4.11.18-.49.12-.74.46-.74,1.02s.25.86.74.98c.41.1,2.28.19,5.61.28,2.81.07,4.68.16,5.63.26.95.1,1.7.29,2.26.57.64.33,1.09.79,1.35,1.38.26.58.4,1.42.4,2.51,0,1.44-.22,2.5-.66,3.2-.33.51-.79.89-1.38,1.15-.59.25-1.42.42-2.49.51-1.15.09-3.28.13-6.4.13-2.61,0-4.55-.06-5.79-.18-1.25-.12-2.18-.33-2.81-.64-.65-.33-1.1-.76-1.36-1.29-.25-.53-.38-1.35-.38-2.44v-.71Z"/></svg>